<svg width="273" height="169" viewBox="0 0 273 169" fill="none" xmlns="http://www.w3.org/2000/svg">
<rect x="2.07349" y="43.4106" width="253.106" height="122.786" rx="16" transform="rotate(-8.83999 2.07349 43.4106)" fill="url(#paint0_linear_42_96)"/>
<path d="M56.2896 131.174L55.6614 126.997C57.7308 126.556 59.1515 125.89 59.9233 124.997C60.6951 124.104 61.0933 122.879 61.118 121.322C61.1332 119.702 60.9695 117.753 60.6268 115.474L59.2224 105.492L38.3265 81.4527C36.6643 79.4375 35.2933 77.6374 34.2135 76.0524C33.1971 74.4578 32.5399 73.1005 32.2419 71.9803C31.2389 72.1959 30.2943 72.3703 29.4083 72.5036C28.5222 72.6369 27.641 72.8018 26.7644 72.9983L25.9791 67.7771L51.6108 63.9218L52.2391 68.0989C49.698 68.4163 47.8834 69.0452 46.7951 69.9856C45.7702 70.9164 45.4305 72.1 45.776 73.5366C46.112 74.9099 46.9923 76.4602 48.4171 78.1875L57.7158 89.021C58.3364 89.7043 59.0392 90.5047 59.8244 91.4221C60.6096 92.3395 61.3996 93.2886 62.1943 94.2693C63.0427 95.1772 63.8327 96.1262 64.5641 97.1165L64.754 97.0879C65.1427 95.7997 65.5852 94.4388 66.0815 93.005C66.6315 91.4985 67.1625 89.8653 67.6745 88.1056L72.6862 73.6635C72.9074 72.9831 73.1998 72.1301 73.5633 71.1046C73.9268 70.0791 74.322 69.0489 74.7488 68.0139C75.2294 66.9061 75.7385 65.9882 76.2762 65.2601C75.1465 65.4947 73.8903 65.7484 72.5075 66.0211C71.1784 66.221 69.9807 66.4335 68.9143 66.6586L68.129 61.4374L87.9698 58.4531L88.5981 62.6302C85.8515 63.3021 83.6669 64.6986 82.0443 66.8195C80.4755 68.8677 78.9372 71.9791 77.4293 76.1538C75.9405 80.4551 74.4738 84.6883 73.0293 88.8535C71.5752 92.9554 70.1749 96.9845 68.8283 100.941C68.9806 101.953 69.1441 103.256 69.3188 104.847C69.5568 106.429 69.7948 108.012 70.0328 109.594C70.2707 111.176 70.4802 112.568 70.661 113.771C70.8324 114.91 70.9418 115.638 70.9894 115.954C71.2464 117.663 71.448 119.218 71.5941 120.62C71.794 121.949 71.8926 123.035 71.8898 123.877C73.1365 123.56 74.456 123.296 75.8484 123.087C77.2945 122.805 78.5507 122.551 79.6171 122.326L80.4024 127.547L56.2896 131.174ZM118.159 123.422C113.665 124.097 109.463 123.694 105.551 122.211C101.638 120.729 98.3353 118.346 95.6409 115.062C93.0003 111.705 91.323 107.654 90.6091 102.907C89.838 97.7807 90.2017 93.0985 91.7 88.8606C93.2521 84.5498 95.6605 80.9839 98.9252 78.1629C102.19 75.342 106.037 73.5983 110.468 72.932C114.961 72.2561 119.169 72.6912 123.09 74.2371C127.002 75.7197 130.278 78.1393 132.919 81.4959C135.613 84.7797 137.318 88.7949 138.032 93.5415C138.784 98.5412 138.415 103.192 136.926 107.493C135.438 111.794 133.061 115.355 129.796 118.176C126.595 120.988 122.715 122.736 118.159 123.422ZM118.109 118.575C121.138 118.055 123.368 116.749 124.801 114.656C126.297 112.554 127.21 110.022 127.542 107.06C127.863 104.035 127.791 100.971 127.324 97.8702C126.915 95.1488 126.262 92.5288 125.365 90.0101C124.523 87.4186 123.433 85.1231 122.097 83.1237C120.761 81.1242 119.174 79.6153 117.339 78.597C115.493 77.5155 113.404 77.1824 111.072 77.5979C108.098 78.0453 105.799 79.3295 104.177 81.4504C102.617 83.5618 101.614 86.1398 101.165 89.1843C100.771 92.156 100.817 95.2557 101.302 98.4834C101.864 102.217 102.871 105.69 104.325 108.902C105.779 112.113 107.649 114.647 109.934 116.504C112.283 118.351 115.008 119.041 118.109 118.575ZM175.351 139.575C169.782 140.412 165.193 140.455 161.585 139.704C158.05 139.006 155.376 137.79 153.562 136.057C151.82 134.377 150.788 132.461 150.464 130.309C150.207 128.6 150.349 126.961 150.89 125.391C151.493 123.812 152.374 122.353 153.532 121.014C154.699 119.738 156.058 118.66 157.608 117.779C155.288 117.416 153.464 116.688 152.134 115.593C150.795 114.436 149.983 112.907 149.697 111.009C149.392 108.983 149.884 106.871 151.171 104.671C152.521 102.462 154.663 100.78 157.596 99.6272C154.558 98.7898 152.003 97.2971 149.933 95.1492C147.862 93.0013 146.548 90.2866 145.99 87.0051C145.355 83.2174 145.805 79.7519 147.338 76.6089C148.935 73.4563 151.165 70.8557 154.028 68.8071C156.955 66.7489 160.127 65.4628 163.544 64.9488C165.506 64.6537 167.574 64.6339 169.748 64.8893C171.913 65.0815 173.936 65.6187 175.816 66.5009C176.236 64.5608 176.901 62.7456 177.812 61.0554C178.723 59.3651 179.871 57.9627 181.257 56.8483C182.705 55.7242 184.284 55.0337 185.993 54.7767C187.828 54.5007 189.292 54.7659 190.384 55.5724C191.476 56.379 192.141 57.5733 192.379 59.1555C192.456 59.6619 192.393 60.3185 192.19 61.1256C192.042 61.8598 191.658 62.5325 191.038 63.1435C190.418 63.7545 189.506 64.1504 188.304 64.3313C187.291 64.4836 186.326 64.3052 185.408 63.796C184.544 63.2141 183.945 62.4628 183.613 61.542C182.322 61.995 181.333 62.9527 180.647 64.415C180.015 65.8046 179.672 67.1829 179.619 68.55C181.483 69.7581 183.011 71.3082 184.201 73.2001C185.446 75.0193 186.239 77.068 186.582 79.3464C187.125 82.9538 186.624 86.2974 185.081 89.3772C183.601 92.4474 181.43 95.0069 178.567 97.0555C175.704 99.1042 172.468 100.4 168.861 100.942C167.785 101.104 166.763 101.193 165.795 101.209C164.817 101.162 163.758 101.224 162.619 101.396C160.594 101.7 158.988 102.427 157.802 103.577C156.679 104.716 156.375 105.927 156.892 107.208C157.418 108.553 158.885 109.271 161.293 109.362C163.701 109.452 167.135 109.26 171.594 108.783C176.495 108.24 180.763 108.213 184.396 108.702C188.083 109.118 191.028 110.196 193.231 111.936C195.498 113.666 196.893 116.272 197.416 119.752C197.807 122.347 197.426 124.767 196.275 127.011C195.187 129.245 193.541 131.208 191.336 132.899C189.204 134.644 186.734 136.083 183.928 137.217C181.121 138.351 178.262 139.137 175.351 139.575ZM175.506 134.795C180.632 134.024 184.445 132.479 186.944 130.162C189.506 127.835 190.607 125.469 190.245 123.064C189.94 121.039 189.006 119.561 187.443 118.631C185.888 117.765 183.808 117.269 181.2 117.143C178.665 117.072 175.716 117.256 172.352 117.698C170.687 117.818 168.996 117.976 167.278 118.169C165.559 118.363 163.953 118.443 162.46 118.409C161.156 119.64 160.203 121.046 159.599 122.625C159.058 124.195 158.876 125.776 159.05 127.367C159.488 130.279 161.201 132.416 164.189 133.778C167.177 135.141 170.949 135.48 175.506 134.795ZM168.475 96.4377C170.626 96.1141 172.318 95.3096 173.548 94.0243C174.832 92.6661 175.685 91.017 176.105 89.077C176.579 87.0641 176.649 84.9501 176.316 82.735C175.926 80.1402 175.179 77.7607 174.077 75.5966C172.975 73.4325 171.591 71.7637 169.926 70.5903C168.261 69.4169 166.29 69.0015 164.011 69.3442C160.91 69.8107 158.691 71.4065 157.353 74.1317C156.016 76.857 155.609 79.96 156.132 83.4409C156.551 86.2256 157.307 88.6683 158.4 90.7692C159.546 92.7972 160.974 94.3299 162.683 95.3672C164.392 96.4045 166.323 96.7614 168.475 96.4377ZM229.842 105.07C229.563 104.077 229.335 103.205 229.157 102.455C228.98 101.705 228.766 100.928 228.516 100.125C226.687 102.6 224.625 104.593 222.328 106.103C220.022 107.55 217.539 108.474 214.881 108.874C210.325 109.559 206.709 108.97 204.034 107.107C201.413 105.172 199.85 102.527 199.346 99.1725C198.908 96.2613 199.381 93.6012 200.766 91.1924C202.152 88.7836 204.137 86.7053 206.721 84.9574C209.297 83.1462 212.182 81.6767 215.378 80.5488C218.564 79.3576 221.74 78.5241 224.904 78.0481L224.061 72.4471C223.757 70.4219 223.286 68.5835 222.649 66.9318C222.003 65.2169 220.998 63.9119 219.634 63.0168C218.323 62.049 216.434 61.7507 213.965 62.1219C212.31 62.3061 210.713 62.8701 209.172 63.8137C207.621 64.6941 206.518 65.9604 205.86 67.6126C206.442 68.0427 206.849 68.5964 207.081 69.2735C207.366 69.8778 207.551 70.4648 207.637 71.0344C207.77 71.9204 207.542 72.9901 206.954 74.2436C206.357 75.4337 205.135 76.1351 203.291 76.3479C201.772 76.5763 200.525 76.2461 199.55 75.3573C198.628 74.3956 198.063 73.2186 197.854 71.8263C197.511 69.5479 198.029 67.3989 199.408 65.3794C200.85 63.3503 202.951 61.6105 205.71 60.16C208.469 58.7095 211.652 57.713 215.259 57.1704C220.702 56.3518 224.967 57.1665 228.053 59.6147C231.203 62.0533 233.24 66.3421 234.163 72.4811C234.506 74.7595 234.834 76.9429 235.148 79.0314C235.462 81.1199 235.745 83.2132 235.996 85.3112C236.31 87.3997 236.643 89.6148 236.995 91.9565C237.138 92.9058 237.268 93.9864 237.386 95.1984C237.503 96.4104 237.599 97.6905 237.672 99.0386C238.738 98.8134 239.836 98.5836 240.966 98.3489C242.096 98.1143 243.167 97.9208 244.179 97.7685L244.936 102.8L229.842 105.07ZM225.561 82.415C223.555 82.8462 221.509 83.4451 219.424 84.2118C217.402 84.9689 215.603 85.919 214.028 87.0621C212.452 88.2051 211.231 89.5537 210.365 91.1079C209.561 92.6525 209.307 94.4058 209.602 96.3678C210.053 98.5005 210.987 99.978 212.405 100.8C213.886 101.613 215.513 101.886 217.285 101.62C219.5 101.286 221.4 100.58 222.985 99.5001C224.561 98.3571 226.057 96.9023 227.474 95.1359C227.306 94.4493 227.17 93.7579 227.065 93.0617C226.951 92.3022 226.832 91.5111 226.708 90.6884C226.622 90.1188 226.465 89.0746 226.237 87.5556C226.062 85.9639 225.837 84.2504 225.561 82.415Z" fill="white"/>
<defs>
<linearGradient id="paint0_linear_42_96" x1="2.0735" y1="104.803" x2="173.655" y2="-2.06828" gradientUnits="userSpaceOnUse">
<stop stop-color="#FF52AF"/>
<stop offset="1" stop-color="#9F53FF"/>
</linearGradient>
</defs>
</svg>
